<svg width="200" height="200" viewBox="0 0 200 200" fill="none" xmlns="http://www.w3.org/2000/svg">
<rect width="200" height="200" rx="100" fill="#222C39"/>
<path d="M140 100.078C140 122.136 121.702 140 99.3023 140H94.8855C90.4687 140 86.9984 136.583 86.9984 132.233V97.4369C86.9984 93.0874 90.4687 89.6699 94.8855 89.6699C99.3023 89.6699 102.773 93.0874 102.773 97.4369V124.155C114.761 122.447 124.068 112.35 124.068 99.9223C124.068 86.4078 113.026 75.534 99.3023 75.534C94.8855 75.534 90.7842 76.6214 87.3139 78.6408C83.0548 80.9709 79.5845 84.5437 77.3761 88.8932C77.2183 89.2039 76.2719 91.2233 75.6409 93.2427C75.3254 94.0194 74.6944 94.4854 73.9057 94.3301C72.9593 94.1748 72.3283 93.2427 72.6438 92.466C73.2747 89.8252 74.2212 88.1165 74.3789 87.9612C74.6944 87.1845 74.3789 86.4078 73.5902 86.0971H73.4325C72.6438 85.7864 71.6973 86.0971 71.3818 86.7184C71.2241 87.1845 70.9086 87.4951 70.7509 87.9612C69.6467 90.6019 68.8579 93.3981 68.3847 96.1942C68.3847 96.3495 68.227 97.7476 68.227 97.9029C68.227 98.6796 67.4383 99.4563 66.6495 99.301C65.7031 99.301 65.0721 98.5243 65.2299 97.7476C65.3876 95.1068 66.0186 92.3107 66.6495 89.9806C66.6495 89.8252 66.6495 89.8252 66.8073 89.6699C66.8073 89.0485 66.3341 88.4272 65.7031 88.1165C64.9144 87.8058 64.1256 88.2718 63.8102 89.0485C63.8102 89.2039 63.3369 90.4466 63.1792 91.068C63.0214 91.8447 62.2327 92.3107 61.2863 92.1553C60.4976 92 59.8666 91.2233 60.0243 90.4466C60.4976 88.7379 61.2863 86.4078 61.7595 85.0097C64.9144 77.2427 70.5931 70.7184 77.6915 66.2136C84.0013 62.3301 91.4152 60 99.4601 60C121.86 60 140 78.0194 140 100.078Z" fill="#3979FF"/>
</svg>
